#!OML:ASF F:\VICON\USERDATA\INSTALL\rory3\rory3.ASF
:FULLY-SPECIFIED
:DEGREES
228
root -4.73985 17.9564 11.3323 187.97 -55.9926 167.697
lowerback 11.1391 -5.16252 -7.52079
upperback 0.530835 -7.74222 2.89222
thorax -4.25632 -3.70958 8.33919
lowerneck 5.88761 -15.7104 -15.5401
upperneck 30.6314 -34.6445 13.3388
head 15.0749 -17.4839 2.47279
rclavicle -1.20265e-013 2.54444e-014
rhumerus -35.8697 -17.4928 -74.6788
rradius 33.6034
rwrist 4.2461
rhand -15.2745 4.91909
rfingers 7.12502
rthumb 10.8999 -24.778
lclavicle -1.20265e-013 2.54444e-014
lhumerus -20.1831 -3.91164 89.1892
lradius 35.0348
lwrist -4.25382
lhand -15.0442 35.2345
lfingers 7.12502
lthumb 11.1222 64.9197
rfemur -28.2232 -0.815329 13.7245
rtibia 44.5319
rfoot -8.58323 1.53633
rtoes -11.0042
lfemur 9.15557 0.419395 -25.534
ltibia 13.6047
lfoot -5.33308 -13.6161
ltoes -7.74846
229
root -4.65497 17.9711 11.377 188.389 -56.4535 167.141
lowerback 11.1294 -5.13093 -7.85866
upperback 0.602912 -7.74252 2.87387
thorax -4.1326 -3.71435 8.5005
lowerneck 5.9068 -15.7348 -15.599
upperneck 30.6153 -34.7689 13.5356
head 15.1565 -17.5223 2.51628
rclavicle -1.85267e-013 -7.95139e-015
rhumerus -35.5826 -17.4077 -74.6964
rradius 33.5089
rwrist 4.57545
rhand -16.1028 5.60028
rfingers 7.12502
rthumb 10.101 -24.1373
lclavicle -1.85267e-013 -7.95139e-015
lhumerus -20.3023 -3.43549 89.2267
lradius 34.223
lwrist -4.70875
lhand -16.1242 32.992
lfingers 7.12502
lthumb 10.0804 62.7306
rfemur -28.1153 -0.490178 13.0967
rtibia 46.1484
rfoot -8.72845 1.53823
rtoes -8.61296
lfemur 8.59546 0.133588 -25.7273
ltibia 14.0631
lfoot -5.15938 -13.8925
ltoes -6.8918
230
root -4.57205 17.9809 11.4217 188.92 -56.887 166.511
lowerback 11.16 -5.13603 -8.14772
upperback 0.570014 -7.78929 2.80272
thorax -4.1475 -3.72915 8.59625
lowerneck 6.02287 -15.6978 -15.5433
upperneck 30.6083 -34.7634 13.6315
head 15.1461 -17.5215 2.56191
rclavicle -1.19271e-014 1.59028e-015
rhumerus -35.5015 -17.1501 -74.7713
rradius 33.5231
rwrist 4.72772
rhand -16.8936 6.22412
rfingers 7.12502
rthumb 9.33799 -23.5491
lclavicle -1.19271e-014 1.59028e-015
lhumerus -20.7109 -3.29643 89.2066
lradius 33.502
lwrist -4.46614
lhand -18.3493 27.955
lfingers 7.12502
lthumb 7.93319 57.7861
rfemur -28.0241 -0.395423 12.4943
rtibia 47.7973
rfoot -8.89898 1.862
rtoes -8.69356
lfemur 8.08982 -0.22935 -25.9994
ltibia 14.3485
lfoot -5.05033 -14.0013
ltoes -6.40009
231
root -4.48948 17.9876 11.4638 188.989 -57.3454 166.5
lowerback 11.1296 -5.16888 -8.07732
upperback 0.512116 -7.82027 2.82568
thorax -4.19194 -3.74006 8.58524
lowerneck 6.16305 -15.6754 -15.5509
upperneck 30.6093 -34.8043 13.7263
head 15.1579 -17.5483 2.60343
rclavicle -9.19379e-014 4.6118e-014
rhumerus -35.4434 -17.1718 -74.705
rradius 33.6988
rwrist 4.88972
rhand -16.7329 6.1127
rfingers 7.12502
rthumb 9.49304 -23.6535
lclavicle -9.19379e-014 4.6118e-014
lhumerus -21.219 -3.14237 89.1592
lradius 32.8986
lwrist -4.35373
lhand -19.4277 24.7803
lfingers 7.12502
lthumb 6.89225 54.6481
rfemur -27.9213 -0.134536 12.273
rtibia 49.4206
rfoot -9.12323 2.1948
rtoes -8.15947
lfemur 7.51514 -0.358165 -25.8303
ltibia 14.6801
lfoot -5.04694 -14.3111
ltoes -5.94602
232
root -4.40671 17.9921 11.5034 188.765 -57.8611 166.752
lowerback 11.1427 -5.22355 -7.9147
upperback 0.53004 -7.87115 2.92703
thorax -4.17692 -3.77098 8.60821
lowerneck 6.06526 -15.692 -15.6425
upperneck 30.7471 -34.8952 13.746
head 15.2891 -17.5769 2.57613
rclavicle 8.84592e-014 -7.95139e-015
rhumerus -35.3153 -17.3312 -74.558
rradius 33.9766
rwrist 5.07886
rhand -16.2587 5.96264
rfingers 7.12502
rthumb 9.95057 -23.7822
lclavicle 8.84592e-014 -7.95139e-015
lhumerus -21.566 -2.53448 89.089
lradius 32.1655
lwrist -4.76904
lhand -19.4374 24.5156
lfingers 7.12502
lthumb 6.88292 54.3837
rfemur -27.6365 0.2473 12.1923
rtibia 50.9699
rfoot -9.0666 2.53693
rtoes -5.03472
lfemur 6.96905 -0.720258 -25.5614
ltibia 15.1537
lfoot -5.07809 -14.3738
ltoes -5.78438
233
root -4.32388 17.9897 11.5442 188.518 -58.38 166.966
lowerback 11.1906 -5.26846 -7.73356
upperback 0.557608 -7.91038 3.00249
thorax -4.17965 -3.79576 8.5959
lowerneck 6.05649 -15.6718 -15.7506
upperneck 30.7818 -34.9306 13.8714
head 15.3744 -17.5886 2.61536
rclavicle 4.57205e-015 3.02153e-014
rhumerus -35.2164 -17.389 -74.4793
rradius 34.1265
rwrist 5.01613
rhand -16.2476 6.07184
rfingers 7.12502
rthumb 9.9613 -23.6725
lclavicle 4.57205e-015 3.02153e-014
lhumerus -21.889 -1.93934 88.9784
lradius 31.3526
lwrist -5.22804
lhand -19.1307 24.5509
lfingers 7.12502
lthumb 7.17895 54.4091
rfemur -27.2204 0.50089 12.1507
rtibia 52.4498
rfoot -9.07223 2.95943
rtoes -4.65891
lfemur 6.45589 -1.26626 -25.3653
ltibia 15.7042
lfoot -5.18697 -14.1197
ltoes -6.21896
234
root -4.24212 17.9949 11.5826 188.335 -58.9049 167.099
lowerback 11.2325 -5.31024 -7.56437
upperback 0.566788 -7.94749 3.02221
thorax -4.20568 -3.81643 8.53111
lowerneck 6.14444 -15.6107 -15.7969
upperneck 30.8159 -34.9654 14.0501
head 15.4442 -17.607 2.68142
rclavicle 3.86636e-014 -4.29375e-014
rhumerus -35.2643 -17.4173 -74.4644
rradius 34.4139
rwrist 4.81077
rhand -16.3827 6.42035
rfingers 7.12502
rthumb 9.83094 -23.3302
lclavicle 3.86636e-014 -4.29375e-014
lhumerus -22.3173 -1.64362 88.8345
lradius 30.599
lwrist -5.3878
lhand -19.4006 24.3052
lfingers 7.12502
lthumb 6.91841 54.1722
rfemur -26.7042 0.760363 12.0933
rtibia 53.849
rfoot -9.34902 3.30986
rtoes -6.49538
lfemur 5.9351 -1.67879 -25.1911
ltibia 16.2351
lfoot -5.33563 -14.0697
ltoes -6.73929
235
root -4.15899 18.0091 11.618 188.337 -59.3778 167.075
lowerback 11.2111 -5.30956 -7.54351
upperback 0.567473 -7.94192 3.02285
thorax -4.19684 -3.81446 8.51673
lowerneck 6.27395 -15.5983 -15.63
upperneck 30.8222 -34.9718 14.0843
head 15.4001 -17.6066 2.69656
rclavicle -5.75482e-014 -3.33958e-014
rhumerus -35.3324 -17.6405 -74.4124
rradius 34.8149
rwrist 4.63085
rhand -16.2848 6.29719
rfingers 7.12502
rthumb 9.92542 -23.4488
lclavicle -5.75482e-014 -3.33958e-014
lhumerus -22.8785 -1.39071 88.6438
lradius 29.9811
lwrist -5.57269
lhand -19.7794 23.9732
lfingers 7.12502
lthumb 6.55276 53.8518
rfemur -26.1829 1.20201 11.9336
rtibia 55.1577
rfoot -9.52595 3.67794
rtoes -7.90922
lfemur 5.36655 -1.93561 -25.0734
ltibia 16.6821
lfoot -5.32044 -14.087
ltoes -6.48358
236
root -4.07482 18.0226 11.6502 188.272 -59.7738 167.08
lowerback 11.3443 -5.20467 -7.52751
upperback 0.471178 -7.808 3.03113
thorax -4.4002 -3.73083 8.52989
lowerneck 6.66117 -15.6433 -15.4894
upperneck 30.6882 -35.0265 14.1
head 15.2487 -17.6553 2.73584
rclavicle -2.61402e-014 1.27222e-014
rhumerus -35.5396 -17.883 -74.1962
rradius 34.9979
rwrist 4.5148
rhand -16.2955 5.86547
rfingers 7.12502
rthumb 9.91511 -23.881
lclavicle -2.61402e-014 1.27222e-014
lhumerus -23.486 -1.24982 88.5572
lradius 29.2795
lwrist -5.89569
lhand -19.6681 24.2342
lfingers 7.12502
lthumb 6.66018 54.1095
rfemur -25.612 1.79041 11.8
rtibia 56.3313
rfoot -9.57873 4.14748
rtoes -9.83988
lfemur 4.93927 -2.05267 -24.9217
ltibia 16.9975
lfoot -5.36347 -14.067
ltoes -6.4324
237
root -3.99338 18.0336 11.683 188.243 -60.1768 167.013
lowerback 11.6873 -5.01509 -7.31975
upperback 0.208115 -7.55226 2.94821
thorax -4.95896 -3.56081 8.36567
lowerneck 7.3472 -15.6997 -15.5266
upperneck 30.4479 -35.2696 14.3466
head 15.1354 -17.8212 2.86337
rclavicle 8.74653e-015 -1.59028e-014
rhumerus -36.2295 -18.1094 -73.8389
rradius 35.3
rwrist 4.19673
rhand -16.3778 5.4074
rfingers 7.12502
rthumb 9.83571 -24.3429
lclavicle 8.74653e-015 -1.59028e-014
lhumerus -24.0825 -1.37182 88.6041
lradius 28.3585
lwrist -6.37826
lhand -19.331 25.0363
lfingers 7.12502
lthumb 6.9856 54.901
rfemur -24.9869 2.35552 11.6095
rtibia 57.3765
rfoot -9.57517 4.79453
rtoes -10.8679
lfemur 4.62273 -2.22164 -24.8239
ltibia 17.1566
lfoot -5.2581 -14.2015
ltoes -6.05076
238
root -3.91347 18.0428 11.7131 188.028 -60.6532 167.211
lowerback 11.418 -5.03954 -7.36805
upperback 0.439731 -7.56847 3.14257
thorax -4.5261 -3.60618 8.5492
lowerneck 7.07903 -15.79 -15.689
upperneck 30.3852 -35.2705 14.4101
head 15.2053 -17.7817 2.86313
rclavicle 5.2181e-014 -4.13472e-014
rhumerus -35.6821 -18.0636 -73.7943
rradius 35.3557
rwrist 4.01572
rhand -16.2053 5.41026
rfingers 7.12502
rthumb 10.0021 -24.3321
lclavicle 5.2181e-014 -4.13472e-014
lhumerus -23.8641 -0.637097 88.5451
lradius 27.3682
lwrist -7.03232
lhand -19.1808 25.1916
lfingers 7.12502
lthumb 7.13061 55.0514
rfemur -24.3116 2.99692 11.5999
rtibia 58.3282
rfoot -9.50772 5.38732
rtoes -11.144
lfemur 4.35314 -2.4954 -24.5703
ltibia 17.1481
lfoot -4.91543 -14.3472
ltoes -5.09799
239
root -3.83419 18.0497 11.7365 187.779 -61.0963 167.462
lowerback 11.1937 -5.0883 -7.25378
upperback 0.595702 -7.60315 3.22596
thorax -4.23198 -3.65152 8.53635
lowerneck 6.74234 -15.8562 -15.6831
upperneck 30.574 -35.2561 14.2435
head 15.3101 -17.7356 2.75762
rclavicle 9.72057e-014 -2.54444e-014
rhumerus -35.3467 -18.0683 -73.8269
rradius 35.442
rwrist 3.71562
rhand -16.0171 5.61769
rfingers 7.12502
rthumb 10.1837 -24.1158
lclavicle 9.72057e-014 -2.54444e-014
lhumerus -24.0585 -0.00297478 88.2728
lradius 26.64
lwrist -7.61721
lhand -18.9562 24.3977
lfingers 7.12502
lthumb 7.34738 54.2502
rfemur -23.5955 3.65845 11.691
rtibia 59.2429
rfoot -9.49001 5.97667
rtoes -12.0567
lfemur 4.15027 -2.52833 -24.2425
ltibia 17.0211
lfoot -4.73879 -14.6
ltoes -5.14663
240
root -3.75591 18.0516 11.7598 187.602 -61.5191 167.591
lowerback 11.1769 -5.07011 -6.99866
upperback 0.599538 -7.54643 3.18273
thorax -4.26812 -3.62563 8.33943
lowerneck 6.70679 -15.9035 -15.7071
upperneck 30.6025 -35.3073 14.273
head 15.357 -17.7482 2.74961
rclavicle -3.8763e-015 -6.67916e-014
rhumerus -35.4863 -18.1884 -73.8083
rradius 35.7469
rwrist 3.31707
rhand -15.6361 5.47643
rfingers 7.12502
rthumb 10.5512 -24.2387
lclavicle -3.8763e-015 -6.67916e-014
lhumerus -24.6306 0.137098 87.9996
lradius 26.1224
lwrist -7.96857
lhand -18.67 24.0646
lfingers 7.12502
lthumb 7.62365 53.9071
rfemur -22.8067 4.14287 11.7792
rtibia 60.1071
rfoot -9.54908 6.4394
rtoes -14.2433
lfemur 4.02343 -2.513 -23.9944
ltibia 16.8487
lfoot -4.78384 -14.7917
ltoes -6.06442
241
root -3.67629 18.0549 11.7888 187.717 -61.9869 167.491
lowerback 11.0722 -5.0699 -6.86833
upperback 0.591812 -7.52346 3.12767
thorax -4.24669 -3.61675 8.19264
lowerneck 6.78507 -15.8931 -15.7261
upperneck 30.5072 -35.3344 14.4997
head 15.3711 -17.7546 2.83402
rclavicle 1.44516e-013 4.77083e-015
rhumerus -35.4579 -18.3408 -73.827
rradius 35.8991
rwrist 3.19722
rhand -15.4888 5.26597
rfingers 7.12502
rthumb 10.6933 -24.4419
lclavicle 1.44516e-013 4.77083e-015
lhumerus -25.1121 0.34063 87.7349
lradius 25.5825
lwrist -8.29204
lhand -18.7382 24.6301
lfingers 7.12502
lthumb 7.55785 54.4751
rfemur -22.0824 4.39669 11.7763
rtibia 60.8456
rfoot -9.68832 6.70641
rtoes -17.1055
lfemur 3.8141 -2.85427 -23.9181
ltibia 16.5968
lfoot -4.57431 -14.8379
ltoes -5.81378
242
root -3.59493 18.06 11.8134 187.607 -62.4146 167.637
lowerback 10.9976 -5.05087 -6.67792
upperback 0.546051 -7.46944 3.08057
thorax -4.29425 -3.58798 8.02496
lowerneck 6.75821 -15.9394 -15.4358
upperneck 30.7202 -35.3032 14.1945
head 15.3283 -17.7293 2.70612
rclavicle -6.87795e-014 -4.77083e-014
rhumerus -35.5648 -18.5616 -73.8098
rradius 36.0496
rwrist 3.31287
rhand -15.6938 5.32092
rfingers 7.12502
rthumb 10.4955 -24.3971
lclavicle -6.87795e-014 -4.77083e-014
lhumerus -25.6517 0.543881 87.4123
lradius 25.026
lwrist -8.56388
lhand -19.0101 24.9314
lfingers 7.12502
lthumb 7.29537 54.7857
rfemur -21.3055 4.88536 11.8863
rtibia 61.3704
rfoot -9.5536 7.21577
rtoes -18.2135
lfemur 3.60264 -3.16577 -23.6824
ltibia 16.3713
lfoot -4.25908 -14.9986
ltoes -5.68244
